<svg width="50px" height="50px" viewBox="0 0 1000 1000" fill="none" xmlns="http://www.w3.org/2000/svg">
    <rect width="1000" height="1000" fill="#0F0815"/>
    <path d="M368.753 620.948C376.81 619.66 386.437 619.192 397.855 619.884C397.965 620.033 398.077 620.183 398.188 620.332C422.808 653.354 448.977 683.398 477.338 704.888C505.831 726.479 537.482 740.131 572.545 738.483C586.351 737.834 600.267 734.832 614.322 729.362C615.442 735.637 614.723 740.967 613.262 745.087C609.958 754.404 599.828 766.136 574.889 769.913C549.914 773.694 510.908 769.787 452.334 748.55C393.762 727.314 361.581 705.79 345.164 687.475C328.767 669.182 329.416 654.626 332.623 645.582C335.83 636.537 344.495 624.826 368.753 620.948ZM394.489 258.21C407.373 237.588 437.09 229.872 464.552 241.149C494.306 253.367 510.274 283.308 500.626 308.399C510.411 315.168 520.59 322.671 531.176 330.96C665.48 436.123 810.867 545.524 670 674.502L669.754 674.728C528.886 803.707 432.695 649.26 339.751 506.227C332.737 495.433 326.393 485.137 320.683 475.305C319.764 475.664 318.828 475.994 317.874 476.291C291.791 484.404 262.809 465.789 253.143 434.713C244.018 405.379 255.365 375.425 278.606 365.335C275.067 328.666 287.776 302.849 309.434 281.192L309.68 280.966C329.128 261.495 356.469 251.08 394.489 258.21ZM257.826 519.557C259.66 508.103 270.431 500.305 281.883 502.138C290.702 503.55 297.355 510.262 299.109 518.505C300.029 522.827 301.526 527.267 305.011 529.984L332.129 551.133C353.153 567.529 347.849 600.666 322.758 609.681L290.393 621.309C286.234 622.803 283.427 626.555 281.203 630.374C276.963 637.656 268.548 641.956 259.729 640.544C248.276 638.711 240.477 627.942 242.311 616.49C244.108 605.261 254.494 597.547 265.691 598.974L266.039 599.022L266.366 599.072C267.976 599.329 269.513 599.763 270.962 600.351C275.505 602.194 280.596 603.57 285.156 601.768L290.061 599.831C298.266 596.589 297.271 584.67 288.642 582.834L273.504 579.612C270.312 578.933 267.015 580.156 265.039 582.752C260.436 587.424 253.719 589.874 246.75 588.758C235.298 586.925 227.5 576.156 229.333 564.702C231.166 553.25 241.936 545.453 253.388 547.286C260.479 548.421 266.168 552.981 269.039 559.008C270.638 562.367 273.45 565.317 277.148 565.717L291.138 567.231C299.909 568.18 304.575 557.167 297.791 551.526L292.461 547.093C288.889 544.122 283.947 543.708 279.304 543.867C277.97 543.912 276.612 543.83 275.244 543.611L274.818 543.539C263.599 541.509 256.016 530.867 257.826 519.557ZM664.875 341.365C674.167 338.966 688.722 339.601 705.502 357.543C722.302 375.508 740.911 409.457 756.914 469.669C772.917 529.884 773.378 569.081 767.415 593.627C761.46 618.137 748.884 627.197 739.313 629.668C735.706 630.6 731.273 630.917 726.234 629.96C734.714 614.503 739.932 598.948 742.063 583.264C746.788 548.482 735.972 515.753 716.971 485.472C698.058 455.331 670.433 426.62 639.704 399.191C637.847 397.533 635.973 395.877 634.088 394.223C634.708 387.026 635.768 380.709 637.157 375.189C643.154 351.366 655.583 343.764 664.875 341.365ZM308.71 417.918C303.356 396.749 295.284 380.533 290.679 381.697C287.649 382.464 286.876 390.565 288.227 402.047C288.347 403.074 288.484 404.128 288.639 405.207C288.81 406.399 289.003 407.621 289.215 408.87C289.926 413.05 290.867 417.519 292.034 422.134C297.388 443.304 305.46 459.522 310.066 458.359C310.414 458.271 310.73 458.084 311.019 457.808C311.417 457.428 311.759 456.876 312.045 456.167C312.104 456.021 312.161 455.868 312.215 455.71C314.082 450.222 313.153 437.004 309.613 421.66C309.478 421.074 309.34 420.484 309.197 419.892L308.71 417.918ZM596.133 228.864C607.704 228.045 617.745 236.761 618.564 248.33C619.062 255.37 616.031 261.845 610.973 266.02C608.212 267.76 606.704 270.936 607.1 274.175L608.977 289.538C610.047 298.295 621.832 300.334 625.783 292.446L628.145 287.732C630.34 283.348 629.419 278.155 627.982 273.467C627.525 271.973 627.226 270.404 627.111 268.778L627.091 268.447L627.074 268.095C626.637 256.816 635.235 247.15 646.578 246.347C658.147 245.528 668.189 254.243 669.008 265.812C669.638 274.722 664.615 282.727 656.987 286.31C652.988 288.189 649.004 290.655 647.149 294.667L632.72 325.883C621.533 350.084 588.059 352.453 573.575 330.069L554.893 301.195C552.492 297.485 548.202 295.605 543.978 294.308C535.921 291.835 529.82 284.617 529.19 275.708C528.371 264.138 537.085 254.096 548.656 253.277C560.081 252.469 570.016 260.959 571.051 272.313L571.085 272.743C571.183 274.124 571.145 275.484 570.982 276.809C570.416 281.421 570.395 286.379 573.04 290.199L576.986 295.899C582.009 303.152 593.39 299.473 593.216 290.652L592.939 276.584C592.865 272.865 590.174 269.804 586.969 267.916C581.218 264.526 577.175 258.458 576.668 251.294C575.849 239.725 584.564 229.683 596.133 228.864ZM448.598 278.796C427.981 271.602 409.999 269.406 408.432 273.889C408.384 274.027 408.351 274.169 408.335 274.316C407.861 278.959 422.971 288.054 442.93 295.019C463.547 302.214 481.531 304.41 483.096 299.925C483.153 299.76 483.185 299.588 483.197 299.41C483.262 298.299 482.464 296.942 480.938 295.426C480.955 295.437 480.971 295.448 480.988 295.459C477.438 291.903 469.874 287.462 460.138 283.262C460.193 283.292 460.249 283.323 460.305 283.353C456.675 281.782 452.741 280.242 448.598 278.796Z" fill="#2BC8A3"/>
    <path d="M368.753 620.948C376.81 619.66 386.437 619.192 397.855 619.884C397.965 620.033 398.077 620.183 398.188 620.332C422.808 653.354 448.977 683.398 477.338 704.888C505.831 726.479 537.482 740.131 572.545 738.483C586.351 737.834 600.267 734.832 614.322 729.362C615.442 735.637 614.723 740.967 613.262 745.087C609.958 754.404 599.828 766.136 574.889 769.913C549.914 773.694 510.908 769.787 452.334 748.55C393.762 727.314 361.581 705.79 345.164 687.475C328.767 669.182 329.416 654.626 332.623 645.582C335.83 636.537 344.495 624.826 368.753 620.948ZM394.489 258.21C407.373 237.588 437.09 229.872 464.552 241.149C494.306 253.367 510.274 283.308 500.626 308.399C510.411 315.168 520.59 322.671 531.176 330.96C665.48 436.123 810.867 545.524 670 674.502L669.754 674.728C528.886 803.707 432.695 649.26 339.751 506.227C332.737 495.433 326.393 485.137 320.683 475.305C319.764 475.664 318.828 475.994 317.874 476.291C291.791 484.404 262.809 465.789 253.143 434.713C244.018 405.379 255.365 375.425 278.606 365.335C275.067 328.666 287.776 302.849 309.434 281.192L309.68 280.966C329.128 261.495 356.469 251.08 394.489 258.21ZM257.826 519.557C259.66 508.103 270.431 500.305 281.883 502.138C290.702 503.55 297.355 510.262 299.109 518.505C300.029 522.827 301.526 527.267 305.011 529.984L332.129 551.133C353.153 567.529 347.849 600.666 322.758 609.681L290.393 621.309C286.234 622.803 283.427 626.555 281.203 630.374C276.963 637.656 268.548 641.956 259.729 640.544C248.276 638.711 240.477 627.942 242.311 616.49C244.108 605.261 254.494 597.547 265.691 598.974L266.039 599.022L266.366 599.072C267.976 599.329 269.513 599.763 270.962 600.351C275.505 602.194 280.596 603.57 285.156 601.768L290.061 599.831C298.266 596.589 297.271 584.67 288.642 582.834L273.504 579.612C270.312 578.933 267.015 580.156 265.039 582.752C260.436 587.424 253.719 589.874 246.75 588.758C235.298 586.925 227.5 576.156 229.333 564.702C231.166 553.25 241.936 545.453 253.388 547.286C260.479 548.421 266.168 552.981 269.039 559.008C270.638 562.367 273.45 565.317 277.148 565.717L291.138 567.231C299.909 568.18 304.575 557.167 297.791 551.526L292.461 547.093C288.889 544.122 283.947 543.708 279.304 543.867C277.97 543.912 276.612 543.83 275.244 543.611L274.818 543.539C263.599 541.509 256.016 530.867 257.826 519.557ZM664.875 341.365C674.167 338.966 688.722 339.601 705.502 357.543C722.302 375.508 740.911 409.457 756.914 469.669C772.917 529.884 773.378 569.081 767.415 593.627C761.46 618.137 748.884 627.197 739.313 629.668C735.706 630.6 731.273 630.917 726.234 629.96C734.714 614.503 739.932 598.948 742.063 583.264C746.788 548.482 735.972 515.753 716.971 485.472C698.058 455.331 670.433 426.62 639.704 399.191C637.847 397.533 635.973 395.877 634.088 394.223C634.708 387.026 635.768 380.709 637.157 375.189C643.154 351.366 655.583 343.764 664.875 341.365ZM308.71 417.918C303.356 396.749 295.284 380.533 290.679 381.697C287.649 382.464 286.876 390.565 288.227 402.047C288.347 403.074 288.484 404.128 288.639 405.207C288.81 406.399 289.003 407.621 289.215 408.87C289.926 413.05 290.867 417.519 292.034 422.134C297.388 443.304 305.46 459.522 310.066 458.359C310.414 458.271 310.73 458.084 311.019 457.808C311.417 457.428 311.759 456.876 312.045 456.167C312.104 456.021 312.161 455.868 312.215 455.71C314.082 450.222 313.153 437.004 309.613 421.66C309.478 421.074 309.34 420.484 309.197 419.892L308.71 417.918ZM596.133 228.864C607.704 228.045 617.745 236.761 618.564 248.33C619.062 255.37 616.031 261.845 610.973 266.02C608.212 267.76 606.704 270.936 607.1 274.175L608.977 289.538C610.047 298.295 621.832 300.334 625.783 292.446L628.145 287.732C630.34 283.348 629.419 278.155 627.982 273.467C627.525 271.973 627.226 270.404 627.111 268.778L627.091 268.447L627.074 268.095C626.637 256.816 635.235 247.15 646.578 246.347C658.147 245.528 668.189 254.243 669.008 265.812C669.638 274.722 664.615 282.727 656.987 286.31C652.988 288.189 649.004 290.655 647.149 294.667L632.72 325.883C621.533 350.084 588.059 352.453 573.575 330.069L554.893 301.195C552.492 297.485 548.202 295.605 543.978 294.308C535.921 291.835 529.82 284.617 529.19 275.708C528.371 264.138 537.085 254.096 548.656 253.277C560.081 252.469 570.016 260.959 571.051 272.313L571.085 272.743C571.183 274.124 571.145 275.484 570.982 276.809C570.416 281.421 570.395 286.379 573.04 290.199L576.986 295.899C582.009 303.152 593.39 299.473 593.216 290.652L592.939 276.584C592.865 272.865 590.174 269.804 586.969 267.916C581.218 264.526 577.175 258.458 576.668 251.294C575.849 239.725 584.564 229.683 596.133 228.864ZM448.598 278.796C427.981 271.602 409.999 269.406 408.432 273.889C408.384 274.027 408.351 274.169 408.335 274.316C407.861 278.959 422.971 288.054 442.93 295.019C463.547 302.214 481.531 304.41 483.096 299.925C483.153 299.76 483.185 299.588 483.197 299.41C483.262 298.299 482.464 296.942 480.938 295.426C480.955 295.437 480.971 295.448 480.988 295.459C477.438 291.903 469.874 287.462 460.138 283.262C460.193 283.292 460.249 283.323 460.305 283.353C456.675 281.782 452.741 280.242 448.598 278.796Z" fill="url(#paint0_linear_103_55)"/>
    <defs>
        <linearGradient id="paint0_linear_103_55" x1="329.571" y1="284.606" x2="569.769" y2="771.19" gradientUnits="userSpaceOnUse">
            <stop offset="" stop-color="#C6F221" />
            <stop offset="1" stop-color="#00D27F"/>
        </linearGradient>
    </defs>
</svg>
